<?xml version="1.0" encoding="UTF-8" standalone="no"?><!-- Generator: Gravit.io --><svg xmlns="http://www.w3.org/2000/svg" xmlns:xlink="http://www.w3.org/1999/xlink" style="isolation:isolate" viewBox="0 0 12 10" width="12pt" height="10pt"><defs><clipPath id="_clipPath_VNGR3VMfib0QAqTs3tbmfdWXM3fpUKEY"><rect width="12" height="10"/></clipPath></defs><g clip-path="url(#_clipPath_VNGR3VMfib0QAqTs3tbmfdWXM3fpUKEY)"><clipPath id="_clipPath_bNyTVrzwvAFKEd5Tt6Hsy70V7frSsR7X"><path d=" M -24 -20 L 24 -20 L 24 20 L -24 20 L -24 -20 Z  M 7.029 7.801 L 4.67 5.5 L 7.029 5.5 L 7.029 7.801 Z " fill-rule="evenodd" fill="rgb(255,255,255)"/></clipPath><g clip-path="url(#_clipPath_bNyTVrzwvAFKEd5Tt6Hsy70V7frSsR7X)"><clipPath id="_clipPath_vogvG7KoJuXNGxcpSD0jmAMu5njsWwVn"><rect x="0" y="0" width="12" height="10" transform="matrix(1,0,0,1,0,0)" fill="rgb(255,255,255)"/></clipPath><g clip-path="url(#_clipPath_vogvG7KoJuXNGxcpSD0jmAMu5njsWwVn)"><g><path d=" M 1.08 4.5 L 7.92 4.5 C 7.964 4.5 8 4.536 8 4.58 L 8 5.42 C 8 5.464 7.964 5.5 7.92 5.5 L 1.08 5.5 C 1.036 5.5 1 5.464 1 5.42 L 1 4.58 C 1 4.536 1.036 4.5 1.08 4.5 Z " fill="rgb(36,36,36)"/><path d=" M 11.727 5.07 L 9.424 6.4 L 7.121 7.729 C 7.054 7.768 7 7.736 7 7.659 L 7 5 L 7 2.341 C 7 2.264 7.054 2.232 7.121 2.271 L 9.424 3.6 L 11.727 4.93 C 11.794 4.969 11.794 5.031 11.727 5.07 Z " fill="rgb(36,36,36)"/></g></g></g></g></svg>